<?xml version="1.0" encoding="UTF-8" standalone="no"?>
<svg
   xmlns:dc="http://purl.org/dc/elements/1.1/"
   xmlns:cc="http://creativecommons.org/ns#"
   xmlns:rdf="http://www.w3.org/1999/02/22-rdf-syntax-ns#"
   xmlns:svg="http://www.w3.org/2000/svg"
   xmlns="http://www.w3.org/2000/svg"
   viewBox="0 0 475.55066 144.52533"
   height="144.52533"
   width="475.55066"
   xml:space="preserve"
   id="svg2"
   version="1.1"><metadata
     id="metadata8"><rdf:RDF><cc:Work
         rdf:about=""><dc:format>image/svg+xml</dc:format><dc:type
           rdf:resource="http://purl.org/dc/dcmitype/StillImage" /></cc:Work></rdf:RDF></metadata><defs
     id="defs6" /><g
     transform="matrix(1.3333333,0,0,-1.3333333,0,144.52533)"
     id="g10"><g
       transform="translate(0,108.194)"
       id="g12"><path
         id="path14"
         style="fill:none;stroke:#000000;stroke-width:0.398;stroke-linecap:butt;stroke-linejoin:miter;stroke-miterlimit:10;stroke-dasharray:none;stroke-opacity:1"
         d="M 0,0 H 356.663" /></g><g
       transform="translate(0,0.399)"
       id="g16"><path
         id="path18"
         style="fill:none;stroke:#000000;stroke-width:0.398;stroke-linecap:butt;stroke-linejoin:miter;stroke-miterlimit:10;stroke-dasharray:none;stroke-opacity:1"
         d="M 0,0 V 107.597" /></g><text
       id="text38"
       style="font-variant:normal;font-weight:normal;font-size:9.96259975px;font-family:CMR10;-inkscape-font-specification:CMR10;writing-mode:lr-tb;fill:#000000;fill-opacity:1;fill-rule:nonzero;stroke:none"
       transform="matrix(1,0,0,-1,11.955,99.626)"><tspan
         id="tspan20"
         y="0"
         x="0 7.4719501 11.3743 16.3556 108.45585 113.43715 118.41845">Arad421</tspan><tspan
         id="tspan22"
         y="11.955"
         x="0 7.0565095 10.95886 15.94016 19.86941 24.571756 108.45486 113.43616 118.41746">Brasov139</tspan><tspan
         id="tspan24"
         y="23.91"
         x="0 7.0565095 12.59173 16.740156 22.275377 27.256678 31.159027 35.586407 39.515656 118.41845">Bucharest0</tspan><tspan
         id="tspan26"
         y="35.865002"
         x="0 7.1949897 9.9625998 15.497821 18.542391 21.862926 29.334875 34.316177 40.130348 45.390602 49.817982 108.45785 113.43915 118.42045">Cluj-Napoca324</tspan><tspan
         id="tspan28"
         y="47.82"
         x="0 7.1949897 11.097341 16.07864 18.846251 23.548597 28.258915 108.45785 113.43915 118.42045">Craiova183</tspan><tspan
         id="tspan30"
         y="59.775002"
         x="0 7.6104302 12.037809 16.738165 108.45386 113.43516 118.41646">Deva298</tspan><tspan
         id="tspan32"
         y="71.731003"
         x="0 7.6104302 12.59173 18.405903 22.833282 26.707739 31.689037 35.009571 41.377666 46.902924 50.805275 56.071507 61.606728 64.927261 70.462479 74.889862 79.869171 84.296547 88.198898 90.966507 108.45685 113.43815 118.41945">Dobeta-Turnu-Severin273</tspan><tspan
         id="tspan34"
         y="83.685997"
         x="0 6.7805457 9.8251162 14.806417 18.708767 21.476377 108.45386 113.43516 118.41646">Eforie180</tspan><tspan
         id="tspan36"
         y="95.640999"
         x="0 5.6766896 10.65799 15.63929 20.62059 24.52294 29.50424 108.45187 113.43317 118.41447">Fagaras180</tspan></text>
<g
       transform="translate(147.309,0.399)"
       id="g40"><path
         id="path42"
         style="fill:none;stroke:#000000;stroke-width:0.398;stroke-linecap:butt;stroke-linejoin:miter;stroke-miterlimit:10;stroke-dasharray:none;stroke-opacity:1"
         d="M 0,0 V 107.597" /></g><text
       id="text60"
       style="font-variant:normal;font-weight:normal;font-size:9.96259975px;font-family:CMR10;-inkscape-font-specification:CMR10;writing-mode:lr-tb;fill:#000000;fill-opacity:1;fill-rule:nonzero;stroke:none"
       transform="matrix(1,0,0,-1,159.264,87.671)"><tspan
         id="tspan44"
         y="0"
         x="0 7.8176522 10.585262 16.120483 20.022833 25.004133 27.771744 57.834885 62.816185">Giurgiu62</tspan><tspan
         id="tspan46"
         y="11.955"
         x="0 7.4719501 10.23956 14.141911 18.071159 22.773508 27.483824 52.858566 57.839867 62.821167">Hirsova148</tspan><tspan
         id="tspan48"
         y="23.91"
         x="0 3.5974948 8.5787945 12.508044 52.85458 57.83588 62.817181">Iasi325</tspan><tspan
         id="tspan50"
         y="35.865002"
         x="0 6.226625 11.761846 16.743145 22.282351 52.853584 57.834885 62.816185">Lugoj357</tspan><tspan
         id="tspan52"
         y="47.82"
         x="0 9.1327152 13.560095 19.095316 24.076616 29.611835 32.379448 52.852589 57.843853 62.825153">Mehadia300</tspan><tspan
         id="tspan54"
         y="59.776001"
         x="0 7.4719501 11.899329 16.880629 24.903511 52.857571 57.838871 62.820171">Neamt279</tspan><tspan
         id="tspan56"
         y="71.731003"
         x="0 7.7489104 11.65126 16.632561 22.167782 26.595161 52.856575 57.837875 62.819176">Oradea432</tspan><tspan
         id="tspan58"
         y="83.685997"
         x="0 6.5015926 10.928972 14.803428 18.705778 23.687078 27.616327 32.597626 38.132847 52.855579 57.83688 62.818176">Petrosani251</tspan></text>
<g
       transform="translate(239.021,0.399)"
       id="g62"><path
         id="path64"
         style="fill:none;stroke:#000000;stroke-width:0.398;stroke-linecap:butt;stroke-linejoin:miter;stroke-miterlimit:10;stroke-dasharray:none;stroke-opacity:1"
         d="M 0,0 V 107.597" /></g><text
       id="text82"
       style="font-variant:normal;font-weight:normal;font-size:9.96259975px;font-family:CMR10;-inkscape-font-specification:CMR10;writing-mode:lr-tb;fill:#000000;fill-opacity:1;fill-rule:nonzero;stroke:none"
       transform="matrix(1,0,0,-1,250.976,87.671)"><tspan
         id="tspan66"
         y="0"
         x="0 6.7805457 9.5481558 13.422611 17.849991 21.77924 25.653694 78.792213 83.773514 88.754814">Pitesti108</tspan><tspan
         id="tspan68"
         y="11.955"
         x="0 7.3334699 12.31477 20.616604 25.597904 78.784241 83.765541 88.746841">Roman284</tspan><tspan
         id="tspan70"
         y="23.91"
         x="0 7.3334699 10.10108 18.402914 23.938135 26.705746 31.133125 39.985893 47.45784 50.225452 52.993061 57.420441 61.84782 78.784241 83.765541 88.746841">RimnicuVilcea126</tspan><tspan
         id="tspan72"
         y="35.865002"
         x="3.3210001 8.8562202 11.623831 17.159052 19.926662 78.791679 83.77298 88.75428">Sibiu206</tspan><tspan
         id="tspan74"
         y="47.82"
         x="0 7.1949897 9.9625998 18.264435 21.032045 24.961294 29.942595 34.923893 38.826244 78.786232 83.767532 88.748833">Timisoara409</tspan><tspan
         id="tspan76"
         y="59.776001"
         x="0 7.4719501 11.3743 15.80168 18.56929 22.99667 27.424049 83.768532 88.749832">Urzicen53</tspan><tspan
         id="tspan78"
         y="71.731003"
         x="0 6.6450543 11.626354 15.555604 18.323214 23.858435 78.790222 83.771515 88.752815">Vaslui276</tspan><tspan
         id="tspan80"
         y="83.685997"
         x="0 6.0881448 10.515524 14.417874 17.185486 22.720705 78.786232 83.767532 88.748833">Zerind432</tspan></text>
<g
       transform="translate(356.663,0.399)"
       id="g84"><path
         id="path86"
         style="fill:none;stroke:#000000;stroke-width:0.398;stroke-linecap:butt;stroke-linejoin:miter;stroke-miterlimit:10;stroke-dasharray:none;stroke-opacity:1"
         d="M 0,0 V 107.597" /></g><g
       transform="translate(0,0.199)"
       id="g88"><path
         id="path90"
         style="fill:none;stroke:#000000;stroke-width:0.398;stroke-linecap:butt;stroke-linejoin:miter;stroke-miterlimit:10;stroke-dasharray:none;stroke-opacity:1"
         d="M 0,0 H 356.663" /></g></g></svg>